<?xml version="1.0" encoding="iso-8859-1"?>
<!-- Generator: Adobe Illustrator 18.0.0, SVG Export Plug-In . SVG Version: 6.00 Build 0)  -->
<!DOCTYPE svg PUBLIC "-//W3C//DTD SVG 1.1//EN" "http://www.w3.org/Graphics/SVG/1.1/DTD/svg11.dtd">
<svg version="1.1" id="Capa_1" xmlns="http://www.w3.org/2000/svg" xmlns:xlink="http://www.w3.org/1999/xlink" x="0px" y="0px"
	 viewBox="0 0 15 13" style="enable-background:new 0 0 15 13;" xml:space="preserve">
<g id="web_-_download_arrow">
	<g>
		<path style="fill-rule:evenodd;clip-rule:evenodd;" d="M14.5,8C14.224,8,14,8.224,14,8.5V12H1V8.5C1,8.224,0.776,8,0.5,8
			C0.224,8,0,8.224,0,8.5v4C0,12.776,0.224,13,0.5,13h14c0.276,0,0.5-0.224,0.5-0.5v-4C15,8.224,14.776,8,14.5,8z M7.142,9.855
			C7.241,9.954,7.37,10.003,7.5,10.003c0.13,0,0.259-0.049,0.358-0.147l2.997-3.497c0.197-0.197,0.197-0.517,0-0.714
			c-0.197-0.197-0.516-0.197-0.714,0L8,8.144V0.5C8,0.224,7.776,0,7.5,0C7.224,0,7,0.224,7,0.5v7.644L4.858,5.645
			c-0.197-0.197-0.516-0.197-0.714,0c-0.197,0.197-0.197,0.517,0,0.714L7.142,9.855z"/>
	</g>
</g>
<g>
</g>
<g>
</g>
<g>
</g>
<g>
</g>
<g>
</g>
<g>
</g>
<g>
</g>
<g>
</g>
<g>
</g>
<g>
</g>
<g>
</g>
<g>
</g>
<g>
</g>
<g>
</g>
<g>
</g>
</svg>
